<svg xmlns="http://www.w3.org/2000/svg" viewBox="0 0 320 280" fill="none" aria-hidden="true" focusable="false" class="terrence-mascot" data-pose="guide"><ellipse cx="159" cy="252" rx="99" ry="12" fill="currentColor" opacity=".07"></ellipse><g class="terrence-body" stroke="#233654" stroke-width="4" stroke-linecap="round" stroke-linejoin="round"><path d="M105 104 79 83 79 48 106 48 116 89M212 104 239 83 239 48 212 48 201 89" fill="#739BE8"></path><path d="M88 73V58H101M230 73V58H217" stroke="#C8DDFF" stroke-width="5"></path><path d="M107 216C83 234 86 251 115 248L138 233M184 233 205 248C233 252 239 236 213 216" fill="#739BE8"></path><path d="M99 145C73 143 56 163 61 182 66 193 80 179 94 178" fill="#96B9F6"></path><path d="M220 148C242 144 262 160 257 179 254 192 239 179 224 179" fill="#96B9F6"></path><path d="M89 160C89 121 103 97 131 90L137 76 152 85 163 72 174 85 190 78 195 94C224 105 233 131 233 164L229 200C225 226 202 239 161 239 117 239 93 225 90 201Z" fill="#96B9F6"></path><path d="M113 185C116 165 136 156 161 156 189 156 210 170 210 192 210 216 191 229 161 229 130 229 111 215 113 185Z" fill="#DCEAFF" stroke="none"></path><g class="terrence-face"><ellipse cx="132" cy="142" rx="5" ry="8" fill="#233654" stroke="none"></ellipse><ellipse cx="190" cy="142" rx="5" ry="8" fill="#233654" stroke="none"></ellipse><ellipse cx="115" cy="157" rx="10" ry="5" fill="#739BE8" stroke="none"></ellipse><ellipse cx="207" cy="157" rx="10" ry="5" fill="#739BE8" stroke="none"></ellipse><path d="M151 166q10 12 20 0"></path></g><g><path d="M108 192q27-9 52 5 25-14 52-5v48q-27-9-52 5-25-14-52-5Z" fill="#FFF1D5"></path><path d="M160 197v48m-39-39 24 3m-24 10 24 3m31-13 24-3m-24 16 24-3" stroke="#B38A43" stroke-width="3"></path></g></g></svg>